<svg version="1.1" xmlns="http://www.w3.org/2000/svg" xmlns:xlink="http://www.w3.org/1999/xlink" width="600" height="600"><defs/><g><path fill="rgb(100, 100, 100)" stroke="none" paint-order="stroke fill markers" d=" M 600 300 A 300 300 0 1 1 599.9998500000124 299.7000000499998"/><path fill="#FFD249" stroke="none" paint-order="stroke fill markers" d=" M 350 300 A 50 50 0 1 1 349.9999750000021 299.9500000083333"/><g transform="translate(300,300) rotate(45,0,0)"><path fill="#FFD249" stroke="none" paint-order="stroke fill markers" d=" M 150 -50 L 100 0 L 150 50"/><rect fill="#FFD249" stroke="none" x="140" y="-30" width="120" height="60"/><g transform="rotate(45,0,0)"><path fill="#FFD249" stroke="none" paint-order="stroke fill markers" d=" M 150 -50 L 100 0 L 150 50"/><rect fill="#FFD249" stroke="none" x="140" y="-30" width="120" height="60"/><g transform="rotate(45,0,0)"><path fill="#FFD249" stroke="none" paint-order="stroke fill markers" d=" M 150 -50 L 100 0 L 150 50"/><rect fill="#FFD249" stroke="none" x="140" y="-30" width="120" height="60"/><g transform="rotate(45,0,0)"><path fill="#FFD249" stroke="none" paint-order="stroke fill markers" d=" M 150 -50 L 100 0 L 150 50"/><rect fill="#FFD249" stroke="none" x="140" y="-30" width="120" height="60"/><g transform="rotate(45,0,0)"><path fill="#FFD249" stroke="none" paint-order="stroke fill markers" d=" M 150 -50 L 100 0 L 150 50"/><rect fill="#FFD249" stroke="none" x="140" y="-30" width="120" height="60"/><g transform="rotate(45,0,0)"><path fill="#FFD249" stroke="none" paint-order="stroke fill markers" d=" M 150 -50 L 100 0 L 150 50"/><rect fill="#FFD249" stroke="none" x="140" y="-30" width="120" height="60"/><g transform="rotate(45,0,0)"><path fill="#FFD249" stroke="none" paint-order="stroke fill markers" d=" M 150 -50 L 100 0 L 150 50"/><rect fill="#FFD249" stroke="none" x="140" y="-30" width="120" height="60"/><g transform="rotate(45,0,0)"><path fill="#FFD249" stroke="none" paint-order="stroke fill markers" d=" M 150 -50 L 100 0 L 150 50"/><rect fill="#FFD249" stroke="none" x="140" y="-30" width="120" height="60"/></g></g></g></g></g></g></g></g></g></svg>