<?xml version="1.0" encoding="utf-8"?>
<!-- Generator: Adobe Illustrator 22.1.0, SVG Export Plug-In . SVG Version: 6.00 Build 0)  -->
<svg version="1.1" id="Layer_1" xmlns="http://www.w3.org/2000/svg" xmlns:xlink="http://www.w3.org/1999/xlink" x="0px" y="0px"
	 viewBox="0 0 500 500" style="enable-background:new 0 0 500 500;" xml:space="preserve">
<style type="text/css">
	.st0{fill:none;stroke:#E1B16C;stroke-width:35;stroke-linecap:round;stroke-miterlimit:10;}
	.st1{fill:#FFCF8A;}
	.st2{fill:none;stroke:#6A4100;stroke-width:6;stroke-linecap:round;stroke-miterlimit:10;}
	.st3{fill:none;stroke:#6A4100;stroke-width:10;stroke-linecap:round;stroke-miterlimit:10;}
	.st4{fill:none;stroke:#F44400;stroke-width:10;stroke-linecap:round;stroke-miterlimit:10;}
	.st5{fill:none;stroke:#959595;stroke-width:7;stroke-miterlimit:10;}
	.st6{fill:#373737;}
	.st7{fill:#969696;}
</style>
<line class="st0" x1="291.7" y1="267.8" x2="266.8" y2="311.2"/>
<line class="st0" x1="208.7" y1="267.9" x2="233.8" y2="311.1"/>
<g>
	<circle class="st1" cx="250" cy="250" r="62.5"/>
</g>
<line class="st2" x1="205" y1="334" x2="295" y2="334.4"/>
<line class="st3" x1="199.5" y1="329.8" x2="250" y2="368.1"/>
<line class="st3" x1="250" y1="368.1" x2="299.5" y2="330.2"/>
<path class="st4" d="M216.2,276.2c0,9.6,7.9,17.5,17.5,17.5"/>
<path class="st4" d="M266.2,294.8c9.6,0,17.5-8.7,17.5-19.5"/>
<line class="st5" x1="250" y1="313.5" x2="250" y2="372.5"/>
<path class="st6" d="M317.5,259.3c0,34.5-67.5,5.5-67.5,5.5s-67.5,29-67.5-5.5s33-75.5,67.5-75.5S317.5,224.8,317.5,259.3z"/>
<rect x="245" y="183.5" class="st7" width="10" height="83"/>
</svg>
