<?xml version="1.0" encoding="utf-8"?>
<!-- Generator: Adobe Illustrator 22.1.0, SVG Export Plug-In . SVG Version: 6.00 Build 0)  -->
<svg version="1.1" id="Layer_1" xmlns="http://www.w3.org/2000/svg" xmlns:xlink="http://www.w3.org/1999/xlink" x="0px" y="0px"
	 width="500px" height="500px" viewBox="0 0 500 500" style="enable-background:new 0 0 500 500;" xml:space="preserve">
<style type="text/css">
	.st0{fill:#648C64;}
	.st1{fill:#506750;}
	.st2{fill:#B800E9;}
	.st3{fill:#FFD249;}
	.st4{fill:#CB31FF;}
	.st5{opacity:0.7;}
	.st6{fill:#B3B3B3;}
	.st7{opacity:0.5;}
</style>
<g>
	<circle class="st0" cx="250" cy="251" r="125"/>
</g>
<rect x="245" y="215" class="st1" width="120" height="70"/>
<g>
	<circle class="st2" cx="211" cy="250" r="54.2"/>
</g>
<g>
	<circle class="st3" cx="280" cy="175" r="24.5"/>
	<path class="st3" d="M280,151c13.2,0,24,10.8,24,24c0,13.2-10.8,24-24,24s-24-10.8-24-24C256,161.8,266.8,151,280,151 M280,150
		c-13.8,0-25,11.2-25,25c0,13.8,11.2,25,25,25c13.8,0,25-11.2,25-25C305,161.2,293.8,150,280,150L280,150z"/>
</g>
<g>
	<circle class="st4" cx="230" cy="233" r="16.7"/>
</g>
<g>
	<circle class="st3" cx="280" cy="325" r="24.5"/>
	<path class="st3" d="M280,301c13.2,0,24,10.8,24,24s-10.8,24-24,24s-24-10.8-24-24S266.8,301,280,301 M280,300
		c-13.8,0-25,11.2-25,25c0,13.8,11.2,25,25,25c13.8,0,25-11.2,25-25C305,311.2,293.8,300,280,300L280,300z"/>
</g>
<g class="st5">
	<circle class="st6" cx="211" cy="250" r="62.5"/>
</g>
<g class="st7">
	<circle class="st6" cx="280" cy="325" r="30"/>
</g>
<g class="st7">
	<circle class="st6" cx="280" cy="175" r="30"/>
</g>
</svg>
