<svg version="1.1" xmlns="http://www.w3.org/2000/svg" xmlns:xlink="http://www.w3.org/1999/xlink" width="600" height="600"><defs/><g><path fill="rgb(100, 100, 100)" stroke="none" paint-order="stroke fill markers" d=" M 600 300 A 300 300 0 1 1 599.9998500000124 299.7000000499998"/><path fill="none" stroke="#FFD249" paint-order="fill stroke markers" d=" M 400 500 A 300 300 0 0 1 100 200.00000000000003" stroke-miterlimit="10" stroke-width="30" stroke-dasharray=""/><path fill="none" stroke="#FFD249" paint-order="fill stroke markers" d=" M 199.99999999999994 100 A 300 300 0 0 1 500 400" stroke-miterlimit="10" stroke-width="30" stroke-dasharray=""/><path fill="none" stroke="#FFD249" paint-order="fill stroke markers" d=" M 100 400.00000000000006 A 300 300 0 0 1 399.99999999999994 100" stroke-miterlimit="10" stroke-width="30" stroke-dasharray=""/><path fill="none" stroke="#FFD249" paint-order="fill stroke markers" d=" M 500 200 A 300 300 0 0 1 200.00000000000003 500" stroke-miterlimit="10" stroke-width="30" stroke-dasharray=""/><path fill="#FFD249" stroke="none" paint-order="stroke fill markers" d=" M 283 183 A 100 100 0 1 1 282.99995000000416 182.9000000166666"/><path fill="#FFD249" stroke="none" paint-order="stroke fill markers" d=" M 517 183 A 100 100 0 1 1 516.9999500000042 182.9000000166666"/><path fill="#FFD249" stroke="none" paint-order="stroke fill markers" d=" M 283 417 A 100 100 0 1 1 282.99995000000416 416.9000000166666"/><path fill="#FFD249" stroke="none" paint-order="stroke fill markers" d=" M 517 417 A 100 100 0 1 1 516.9999500000042 416.9000000166666"/></g></svg>