<?xml version="1.0" encoding="utf-8"?>
<!-- Generator: Adobe Illustrator 22.1.0, SVG Export Plug-In . SVG Version: 6.00 Build 0)  -->
<svg version="1.1" id="Layer_1" xmlns="http://www.w3.org/2000/svg" xmlns:xlink="http://www.w3.org/1999/xlink" x="0px" y="0px"
	 viewBox="0 0 600 600" style="enable-background:new 0 0 600 600;" xml:space="preserve">
<style type="text/css">
	.st0{opacity:0.7;}
	.st1{fill:none;stroke:#DB4F00;stroke-width:40;stroke-miterlimit:10;}
	.st2{opacity:0.7;fill:none;stroke:#DB4F00;stroke-width:40;stroke-miterlimit:10;}
</style>
<g class="st0">
	<g>
		<path class="st1" d="M20,300c0,138.2,107.3,250,240,250s240-111.8,240-250"/>
		<path class="st1" d="M420,300c0,92.1-71.6,166.7-160,166.7S100,392.1,100,300"/>
		<path class="st1" d="M180,300c0,46.1,35.8,83.3,80,83.3s80-37.3,80-83.3"/>
	</g>
	<g>
	</g>
</g>
<path class="st2" d="M580,300c0-138.2-107.3-251-240-251S100,161.8,100,300"/>
<path class="st2" d="M180,300c0-92.1,71.6-167.7,160-167.7S500,207.9,500,300"/>
<path class="st2" d="M420,300c0-46.1-35.8-84.3-80-84.3s-80,38.3-80,84.3"/>
</svg>
