<?xml version="1.0" encoding="utf-8"?>
<!-- Generator: Adobe Illustrator 22.1.0, SVG Export Plug-In . SVG Version: 6.00 Build 0)  -->
<svg version="1.1" id="Layer_1" xmlns="http://www.w3.org/2000/svg" xmlns:xlink="http://www.w3.org/1999/xlink" x="0px" y="0px"
	 width="600px" height="600px" viewBox="0 0 600 600" style="enable-background:new 0 0 600 600;" xml:space="preserve">
<style type="text/css">
	.st0{opacity:0.3;}
	.st1{fill:#E115FF;}
</style>
<g class="st0">
	<path class="st1" d="M600,300c0,165.7-134.3,300-300,300C134.3,600,0,465.7,0,300S134.3,0,300,0c165.6,0,299.8,134.2,300,299.7"/>
</g>
<g class="st0">
	<path class="st1" d="M525,300c0,124.3-100.8,225-225,225C175.7,525,75,424.2,75,300S175.8,75,300,75c124.2,0,224.9,100.6,225,224.8
		"/>
</g>
<g class="st0">
	<path class="st1" d="M498,300c0,110.5-89.6,200-200,200c-110.5,0-200-89.6-200-200s89.6-200,200-200c110.4,0,199.9,89.4,200,199.8"
		/>
</g>
</svg>
